M48
INCH
T01C0.0150
T02C0.0400
T03C0.0300
%
T01
X+007860Y-006060
X+008460Y-006060
X+005940Y-011340
X+004660Y-008360
X+004640Y-007780
X+007500Y-006660
X+007200Y-011361
X+005150Y-011950
X+006750Y-009000
X+009350Y-007259
X+008900Y-007250
X+008460Y-009900
X+006360Y-009900
X+005290Y-006480
X+007140Y-006540
X+007440Y-007740
X+008750Y-006750
T02
X+013000Y-004600
X+013000Y-005600
X+013000Y-006600
X+013000Y-007600
X+014000Y-007600
X+014000Y-006600
X+014000Y-005600
X+014000Y-004600
X+013000Y-009000
X+013000Y-010000
X+013000Y-011000
X+013000Y-012000
X+014000Y-012000
X+014000Y-011000
X+014000Y-010000
X+014000Y-009000
X+012000Y-004600
X+012000Y-005600
X+012000Y-006600
X+012000Y-007600
X+012000Y-009000
X+012000Y-010000
X+012000Y-011000
X+012000Y-012000
X+003750Y-004000
X+004750Y-004000
X+005750Y-004000
X+006750Y-004000
X+007750Y-004000
X+010360Y-006850
X+010360Y-007850
X+010360Y-008850
X+010360Y-009850
X+010360Y-010850
X+010500Y-005000
X+009500Y-005000
X+008500Y-005000
X+007500Y-005000
X+006500Y-005000
X+003500Y-005000
X+002500Y-005000
X+002500Y-006000
X+002500Y-007000
X+002500Y-008000
X+002500Y-009000
X+002500Y-010000
X+002500Y-011000
X+002500Y-012000
T03
X+004000Y-011000
X+004000Y-009000
M30
