M48
INCH
T01C0.0150
T02C0.0300
T03C0.0400
%
T01
X-004620Y+009240
X-008220Y+006960
X-006840Y+007500
X-005820Y+001620
X-007500Y+006600
X-004440Y+005940
X-004680Y+005220
X-005280Y+005040
X-003600Y+000720
X-003600Y+003000
X-006660Y+008160
X-000480Y+009120
X-001560Y+004620
X-004380Y+005580
X-003600Y+007200
X-003600Y+008160
X-003840Y+008700
X-007680Y+009120
X-008460Y+008880
X-009600Y+001860
X-005820Y+008700
X-006540Y+007200
T02
X-007500Y+005500
X-007500Y+007500
T03
X-010000Y+010000
X-009000Y+010000
X-008000Y+010000
X-007000Y+010000
X-006000Y+010000
X-005000Y+010000
X-004000Y+010000
X-003000Y+010000
X-002000Y+010000
X-002000Y+004000
X-002000Y+003000
X-002000Y+002000
X-002000Y+001000
X-001000Y+001000
X-001000Y+002000
X-001000Y+003000
X-001000Y+004000
X-002000Y+008500
X-002000Y+007500
X-002000Y+006500
X-002000Y+005500
X-001000Y+005500
X-001000Y+006500
X-001000Y+007500
X-001000Y+008500
X-006000Y+001000
X-007000Y+001000
X-008000Y+001000
X-009000Y+001000
X-010000Y+001000
X-008000Y+003500
X-007000Y+003500
X-006000Y+003500
X-008000Y+002500
X-007000Y+002500
X-006000Y+002500
X-003000Y+001000
X-003000Y+002000
X-003000Y+003000
X-003000Y+004000
X-003000Y+005500
X-003000Y+006500
X-003000Y+007500
X-003000Y+008500
X-010000Y+008500
X-010000Y+007500
X-010000Y+006500
X-010000Y+005500
X-010000Y+004500
X-010000Y+003500
X-010000Y+002500
M30
